<svg width="24" height="24" viewBox="0 0 24 24" fill="none" xmlns="http://www.w3.org/2000/svg">
	<path fill-rule="evenodd" clip-rule="evenodd" d="M12 4.6875C10.0325 4.6875 8.4375 6.28249 8.4375 8.25V10.125H8.25C7.21447 10.125 6.375 10.9645 6.375 12V17.25C6.375 18.2855 7.21447 19.125 8.25 19.125H15.75C16.7855 19.125 17.625 18.2855 17.625 17.25V12C17.625 10.9645 16.7855 10.125 15.75 10.125H9.5625V8.25C9.5625 6.90381 10.6538 5.8125 12 5.8125C13.3462 5.8125 14.4375 6.90381 14.4375 8.25C14.4375 8.56066 14.6893 8.8125 15 8.8125C15.3107 8.8125 15.5625 8.56066 15.5625 8.25C15.5625 6.28249 13.9675 4.6875 12 4.6875ZM12 13.3125C12.3107 13.3125 12.5625 13.5643 12.5625 13.875V15.375C12.5625 15.6857 12.3107 15.9375 12 15.9375C11.6893 15.9375 11.4375 15.6857 11.4375 15.375V13.875C11.4375 13.5643 11.6893 13.3125 12 13.3125Z" fill="#1F1F1F" />
</svg>
