<svg width="24" height="24" viewBox="0 0 24 24" fill="none" xmlns="http://www.w3.org/2000/svg">
	<path d="M2.22392 9.67812L20.4672 2.75827C20.8702 2.60539 21.2649 3.00005 21.112 3.40309L14.1921 21.6464C14.0294 22.0755 13.4227 22.0769 13.258 21.6485L10.5115 14.5076C10.3083 13.9794 9.8909 13.562 9.36272 13.3588L2.22176 10.6123C1.79335 10.4475 1.79475 9.84091 2.22392 9.67812Z" fill="#1F1F1F" fill-opacity="0.42" />
	<path d="M20.2899 2.29077L2.04659 9.21063C1.18826 9.5362 1.18545 10.7494 2.04227 11.079L9.18323 13.8255C9.57937 13.9779 9.89242 14.2909 10.0448 14.687L12.7913 21.828C13.1208 22.6848 14.3341 22.682 14.6596 21.8237L21.5795 3.58042C21.8853 2.77435 21.0959 1.98501 20.2899 2.29077Z" stroke="#1F1F1F" stroke-opacity="0.42" />
</svg>
