<svg width="18" height="18" viewBox="0 0 18 18" fill="none" xmlns="http://www.w3.org/2000/svg">
	<path fill-rule="evenodd" clip-rule="evenodd" d="M9.33879 16.1906C9.86774 15.6952 11.0537 14.43 13.5 11.25C17.2502 6.375 13.1037 1.5 8.96157 1.5C4.81944 1.5 0.750067 6.375 4.5 11.25C6.75143 14.1769 8.04295 15.5837 8.61105 16.1608C8.81972 16.3728 9.12169 16.3939 9.33879 16.1906ZM9 10.5C10.6569 10.5 12 9.15685 12 7.5C12 5.84315 10.6569 4.5 9 4.5C7.34315 4.5 6 5.84315 6 7.5C6 9.15685 7.34315 10.5 9 10.5Z" fill="#1F1F1F" stroke="#1F1F1F" stroke-width="1.5" />
</svg>
